<svg id="Layer_1" data-name="Layer 1" xmlns="http://www.w3.org/2000/svg" viewBox="0 0 1080 1080"><defs><style>.cls-1{fill:#fff;}</style></defs><path class="cls-1" d="M1158.038,1623.744h-1312V-125.595H1158.038ZM974.558,720.263a13.151,13.151,0,0,1-.357-2.175q.057-35.146.169-70.293c.123-26.021.364-52.042.494-78.063s.2-52.037.27-78.056c.069-24.578.246-49.158.126-73.735-.128-26.277-.546-52.553-.84-78.83-.273-24.476-.795-48.953-.7-73.428.035-9.173-6.882-14.64-9.954-22.1-.293-.711-1.394-1.157-2.2-1.581-18.015-9.507-35.928-19.218-54.093-28.432-27.947-14.176-56.084-27.977-84.112-42-28.137-14.074-56.2-28.29-84.42-42.2-2.254-1.111-5.473-.653-8.18-.352-3.15.351-6.219,1.866-9.344,1.939-10.184.235-20.378.047-30.567.014q-55.186-.18-110.371-.358-59.509-.138-119.02-.173-59.682-.047-119.362-.007-60.682.075-121.364.294-82.041.2-164.083.4c-3.832.011-7.364,1.494-8.5,5.164-1.534,4.941-2.4,10.058-.674,15.411a50.34,50.34,0,0,1,2.141,12.506c.327,5.74-.01,11.516-.02,17.277Q49.472,252,49.371,322.508q-.062,73.859-.021,147.716.006,70.523.035,141.045.026,64.238.076,128.474c.025,23.818.14,47.637.1,71.456a7.738,7.738,0,0,1-1.65,4.524c-4.516,5.512-4.154,11.036,1.915,14.589,6.256,3.661,13.01,6.461,19.469,9.786,34.02,17.515,67.948,35.211,102.041,52.583,30.833,15.712,61.945,30.88,92.7,46.749a60.845,60.845,0,0,0,26.5,7.01c30.847.737,61.716.507,92.577.669q56.739.3,113.479.628c33.639.166,67.279.235,100.917.438,22.482.135,44.963.492,67.444.634q35.109.224,70.22.218c32.2.015,64.392.049,96.587-.121,20.39-.108,40.778-.632,61.168-.859,21.733-.243,43.47-.217,65.2-.637,4.666-.091,10.306.22,12.925-4.878a25.067,25.067,0,0,0,2.726-10.843c.233-26.186.12-52.375.149-78.564.035-31.433.052-62.868.248-94.3a13.675,13.675,0,0,1,2.207-7.216c7.8-11.417,16.423-22.3,23.733-34.008,14.935-23.925,24.92-49.981,31.2-77.465.686-3.007.345-5.4-2.157-7.743-3.228-3.025-5.883-6.659-8.806-10.014-1.132-1.3-2.319-2.552-4-4.392C1009.762,655.654,996.672,689.727,974.558,720.263Z"/><path d="M974.558,720.263c22.114-30.536,35.2-64.609,41.791-102.277,1.679,1.84,2.866,3.092,4,4.392,2.923,3.355,5.578,6.989,8.806,10.014,2.5,2.345,2.843,4.736,2.157,7.743-6.279,27.484-16.264,53.54-31.2,77.465-7.31,11.71-15.937,22.591-23.733,34.008a13.675,13.675,0,0,0-2.207,7.216c-.2,31.433-.213,62.868-.248,94.3-.029,26.189.084,52.378-.149,78.564a25.067,25.067,0,0,1-2.726,10.843c-2.619,5.1-8.259,4.787-12.925,4.878-21.729.42-43.466.394-65.2.637-20.39.227-40.778.751-61.168.859-32.195.17-64.391.136-96.587.121q-35.111-.015-70.22-.218c-22.481-.142-44.962-.5-67.444-.634-33.638-.2-67.278-.272-100.917-.438q-56.739-.28-113.479-.628c-30.861-.162-61.73.068-92.577-.669a60.845,60.845,0,0,1-26.5-7.01c-30.75-15.869-61.862-31.037-92.695-46.749-34.093-17.372-68.021-35.068-102.041-52.583-6.459-3.325-13.213-6.125-19.469-9.786-6.069-3.553-6.431-9.077-1.915-14.589a7.738,7.738,0,0,0,1.65-4.524c.044-23.819-.071-47.638-.1-71.456q-.068-64.238-.076-128.474-.027-70.523-.035-141.045,0-73.857.021-147.716Q49.429,252,49.6,181.489c.01-5.761.347-11.537.02-17.277a50.34,50.34,0,0,0-2.141-12.506c-1.729-5.353-.86-10.47.674-15.411,1.139-3.67,4.671-5.153,8.5-5.164q82.041-.22,164.083-.4,60.683-.147,121.364-.294,59.681-.073,119.362.007,59.51.047,119.02.173,55.185.129,110.371.358c10.189.033,20.383.221,30.567-.014,3.125-.073,6.194-1.588,9.344-1.939,2.707-.3,5.926-.759,8.18.352,28.217,13.91,56.283,28.126,84.42,42.2,28.028,14.019,56.165,27.82,84.112,42C925.64,222.786,943.553,232.5,961.568,242c.8.424,1.9.87,2.2,1.581,3.072,7.458,9.989,12.925,9.954,22.1-.094,24.475.428,48.952.7,73.428.294,26.277.712,52.553.84,78.83.12,24.577-.057,49.157-.126,73.735q-.11,39.029-.27,78.056c-.13,26.021-.371,52.042-.494,78.063q-.166,35.147-.169,70.293A13.151,13.151,0,0,0,974.558,720.263ZM521.849,612.51c.5,1.508.809,2.2.955,2.919,1.751,8.7,3.208,17.473,5.264,26.1a234.318,234.318,0,0,0,29.138,69.348A249.286,249.286,0,0,0,855.143,814.117c36.651-13.538,68.656-34.195,95.432-62.73a11.039,11.039,0,0,0,2.812-6.83c.139-26.849.048-53.7-.052-80.548q-.245-65.559-.566-131.119c-.146-37.864-.4-75.729-.314-113.593.074-31.117.551-62.233.912-93.349.206-17.67.519-35.339.827-53.008.053-3.067-.948-4.545-4.358-4.282-3.9.3-7.847.066-11.773.084q-82.414.375-164.828.762c-31.007.155-62.014.437-93.021.543q-62.457.214-124.916.239c-53.426.036-106.853.116-160.278-.048-32.182-.1-64.363-.619-96.544-.972-2.66-.029-3.711,1.028-3.584,3.8.2,4.441.012,8.9.049,13.35q.621,73.995,1.25,147.989c.173,22.122.216,44.245.33,66.367q.238,46.546.486,93.095c.121,30.093.137,60.187.255,90.281.082,21.033.328,42.065.369,63.1.035,17.89-.077,35.779-.2,53.668-.166,24.59-.332,49.18-.631,73.768-.2,16.491-.6,32.98-.983,49.468-.069,2.987.879,4.023,4.092,3.986,24.586-.278,49.174-.348,73.762-.474q50.264-.258,100.528-.5,67.32-.348,134.639-.713c32.163-.176,64.326-.426,96.489-.541,29.849-.106,59.7-.211,89.548-.075,33.875.153,67.748.563,101.622.883q26.9.255,53.8.617c2.806.041,3.632-1.139,3.576-3.776-.107-4.971.068-9.948.056-14.922q-.149-61.458-.323-122.916c-.008-2.872,0-5.743,0-9.687-2.142,1.854-3.232,2.764-4.286,3.716a264.974,264.974,0,0,1-68.1,44.895,268.463,268.463,0,0,1-325.6-82.448A271.157,271.157,0,0,1,507.472,638.4a9.547,9.547,0,0,1,1.935-8.77c3.514-4.378,6.519-9.163,9.765-13.757C519.866,614.886,520.67,613.981,521.849,612.51ZM275.885,924.8c0-3.289.053-5.349-.009-7.406-.336-11.242-.925-22.481-1.013-33.724q-.39-49.891-.445-99.784-.039-72.69.2-145.381.21-68.493.664-136.987c.194-32.586.526-65.172.748-97.758.173-25.4.213-50.79.42-76.185.166-20.39.5-40.78.741-61.17a6.311,6.311,0,0,0-4.165-6.4c-7.493-3.377-14.936-6.886-22.263-10.609-20.143-10.232-40.221-20.592-60.315-30.92q-41.466-21.314-82.92-42.65-17.255-8.87-34.539-17.68c-3.536-1.8-4.937-.912-5.189,3.13-.041.654-.109,1.308-.107,1.962.074,18.586.189,37.172.228,55.759q.156,73.239.244,146.477c.021,33.779-.124,67.559-.131,101.338q-.011,51.642.1,103.285.025,53.614-.025,107.228c-.051,27.616-.275,55.231-.351,82.846-.051,18.715-.044,37.431.158,56.144a6.212,6.212,0,0,0,2.751,4.4c4.49,2.636,9.252,4.811,13.917,7.147q38.7,19.377,77.4,38.755,47.406,23.833,94.744,47.8C262.854,917.521,268.818,920.957,275.885,924.8ZM934.414,249.381c-16.519-8.355-32.127-16.172-47.665-24.126q-44.12-22.584-88.175-45.292-30.142-15.486-60.315-30.909a9.08,9.08,0,0,0-4.432-.679c-2.714.148-5.407.9-8.112.92q-34.533.213-69.068.236-128,.2-256.008.369c-36.875.051-73.751.215-110.626.116q-88.951-.237-177.9-.75c-4.7-.02-9.409,0-14.113,0l-.089,1.248a10.694,10.694,0,0,0,1.17.788c27.548,13.78,55.139,27.474,82.642,41.344,32.054,16.166,64.026,32.494,96.051,48.717,2.65,1.342,5.432,2.426,8.159,3.614,2.112.921,4.221,1.85,6.357,2.713,1.618.653,3.277,1.726,4.916,1.723,14.5-.02,29-.237,43.5-.4,24.065-.272,48.13-.742,72.195-.782q86.384-.144,172.769.057c38.326.077,76.652.391,114.977.589q48.223.249,96.446.471,66.372.276,132.744.484C931.057,249.834,932.274,249.6,934.414,249.381Z"/><path class="cls-1" d="M521.849,612.51c-1.179,1.471-1.983,2.376-2.677,3.358-3.246,4.594-6.251,9.379-9.765,13.757a9.547,9.547,0,0,0-1.935,8.77A271.157,271.157,0,0,0,555.61,742.188a267.772,267.772,0,0,0,393.708,37.553c1.054-.952,2.144-1.862,4.286-3.716,0,3.944-.007,6.815,0,9.687q.164,61.458.323,122.916c.012,4.974-.163,9.951-.056,14.922.056,2.637-.77,3.817-3.576,3.776q-26.9-.395-53.8-.617c-33.874-.32-67.747-.73-101.622-.883-29.849-.136-59.7-.031-89.548.075-32.163.115-64.326.365-96.489.541q-67.318.368-134.639.713-50.264.261-100.528.5c-24.588.126-49.176.2-73.762.474-3.213.037-4.161-1-4.092-3.986.384-16.488.783-32.977.983-49.468.3-24.588.465-49.178.631-73.768.121-17.889.233-35.778.2-53.668-.041-21.032-.287-42.064-.369-63.1-.118-30.094-.134-60.188-.255-90.281q-.186-46.548-.486-93.095c-.114-22.122-.157-44.245-.33-66.367q-.579-73.995-1.25-147.989c-.037-4.45.156-8.909-.049-13.35-.127-2.771.924-3.828,3.584-3.8,32.181.353,64.362.873,96.544.972,53.425.164,106.852.084,160.278.048q62.458-.042,124.916-.239c31.007-.106,62.014-.388,93.021-.543q82.413-.411,164.828-.762c3.926-.018,7.87.217,11.773-.084,3.41-.263,4.411,1.215,4.358,4.282-.308,17.669-.621,35.338-.827,53.008-.361,31.116-.838,62.232-.912,93.349-.089,37.864.168,75.729.314,113.593q.254,65.56.566,131.119c.1,26.849.191,53.7.052,80.548a11.039,11.039,0,0,1-2.812,6.83c-26.776,28.535-58.781,49.192-95.432,62.73A249.3,249.3,0,0,1,557.206,710.879a234.318,234.318,0,0,1-29.138-69.348c-2.056-8.629-3.513-17.4-5.264-26.1C522.658,614.707,522.349,614.018,521.849,612.51ZM742.9,391.077l-1.2.022c0,16.751.318,33.51-.084,50.252-.464,19.362-1.82,38.7-2.3,58.064-.377,15.137-.083,30.294.072,45.44a7.793,7.793,0,0,0,7.679,7.478c3.841.09,7.692-2.974,7.916-6.765,1.007-17.1,2.5-34.2,2.607-51.306.1-16.588-.762-33.229-2.137-49.769-2.46-29.588-5.56-59.124-8.565-88.664-.42-4.126-1.751-8.17-2.819-12.21-.177-.667-1.177-1.116-1.8-1.665-.46.678-1.18,1.308-1.319,2.048a15.605,15.605,0,0,0-.008,3.524Q741.918,369.3,742.9,391.077ZM539.956,522.708c.267,5.375.617,13.994,1.16,22.6a7.858,7.858,0,0,0,7.713,7.02,7.938,7.938,0,0,0,7.928-7.206c.22-2.869.3-5.748.441-8.622.783-15.532,2.717-31.109,2.11-46.586-1.216-30.961-3.47-61.9-6-92.785-1.353-16.532-4.091-32.956-6.426-49.4-.285-2.013-1.943-3.831-2.965-5.739-.415,2.013-1.217,4.031-1.188,6.038.377,26.175,1.593,52.361,1.148,78.52C543.352,457.537,541.418,488.5,539.956,522.708ZM468.417,355.025l1.067.454a4.783,4.783,0,0,0,.028,1.562c.441,1.2,1.02,2.343,1.544,3.509a23.6,23.6,0,0,0,1.842-3.322c1.328-3.627,1.655-8,3.927-10.831a252.435,252.435,0,0,1,21.616-24.259c11.364-10.928,23.949-19.95,40.9-19.9,4.442.013,7.208-3.908,6.853-8.4a7.984,7.984,0,0,0-8.541-7.422,47.327,47.327,0,0,0-25.173,10c-15.634,12.047-27.585,27.427-37.877,44.079C471.867,344.916,470.444,350.157,468.417,355.025Zm356.574-26.778a6.607,6.607,0,0,0-.9-2.741c-2.379-3.1-4.686-6.376-7.584-8.949-12.409-11.017-26.827-18.531-42.626-23.411-1.217-.376-2.773.344-4.171.555a21.685,21.685,0,0,0,2.98,3.022c7.3,5,15.393,9.1,21.8,15.047,6.62,6.142,11.653,14,17.307,21.173,2.12,2.688,4.631,4.462,8.089,3.3C823.091,335.174,825.218,332.95,824.991,328.247Z"/><path class="cls-1" d="M275.885,924.8c-7.067-3.842-13.031-7.278-19.163-10.384q-47.334-23.976-94.744-47.8-38.667-19.442-77.4-38.755c-4.665-2.336-9.427-4.511-13.917-7.147a6.212,6.212,0,0,1-2.751-4.4c-.2-18.713-.209-37.429-.158-56.144.076-27.615.3-55.23.351-82.846q.1-53.613.025-107.228-.022-51.642-.1-103.285c.007-33.779.152-67.559.131-101.338q-.044-73.239-.244-146.477c-.039-18.587-.154-37.173-.228-55.759,0-.654.066-1.308.107-1.962.252-4.042,1.653-4.93,5.189-3.13q17.29,8.8,34.539,17.68,41.466,21.315,82.92,42.65c20.094,10.328,40.172,20.688,60.315,30.92,7.327,3.723,14.77,7.232,22.263,10.609a6.311,6.311,0,0,1,4.165,6.4c-.241,20.39-.575,40.78-.741,61.17-.207,25.395-.247,50.79-.42,76.185-.222,32.586-.554,65.172-.748,97.758q-.407,68.493-.664,136.987-.222,72.69-.2,145.381.025,49.891.445,99.784c.088,11.243.677,22.482,1.013,33.724C275.938,919.45,275.885,921.51,275.885,924.8Z"/><path class="cls-1" d="M934.414,249.381c-2.14.217-3.357.453-4.574.449q-66.372-.219-132.744-.484-48.224-.2-96.446-.471c-38.325-.2-76.651-.512-114.977-.589q-86.384-.175-172.769-.057c-24.065.04-48.13.51-72.195.782-14.5.163-29,.38-43.5.4-1.639,0-3.3-1.07-4.916-1.723-2.136-.863-4.245-1.792-6.357-2.713-2.727-1.188-5.509-2.272-8.159-3.614-32.025-16.223-64-32.551-96.051-48.717-27.5-13.87-55.094-27.564-82.642-41.344a10.694,10.694,0,0,1-1.17-.788L98,149.264c4.7,0,9.409-.018,14.113,0q88.95.384,177.9.75c36.875.1,73.751-.065,110.626-.116q128-.18,256.008-.369,34.534-.054,69.068-.236c2.7-.016,5.4-.772,8.112-.92a9.08,9.08,0,0,1,4.432.679q30.2,15.364,60.315,30.909,44.085,22.65,88.175,45.292C902.287,233.209,917.9,241.026,934.414,249.381Z"/><path d="M742.9,391.077q-.978-21.775-1.951-43.551A15.605,15.605,0,0,1,740.96,344c.139-.74.859-1.37,1.319-2.048.619.549,1.619,1,1.8,1.665,1.068,4.04,2.4,8.084,2.819,12.21,3,29.54,6.105,59.076,8.565,88.664,1.375,16.54,2.236,33.181,2.137,49.769-.1,17.107-1.6,34.209-2.607,51.306-.224,3.791-4.075,6.855-7.916,6.765a7.793,7.793,0,0,1-7.679-7.478c-.155-15.146-.449-30.3-.072-45.44.481-19.362,1.837-38.7,2.3-58.064.4-16.742.084-33.5.084-50.252Z"/><path d="M539.956,522.708c1.462-34.209,3.4-65.171,3.922-96.157.445-26.159-.771-52.345-1.148-78.52-.029-2.007.773-4.025,1.188-6.038,1.022,1.908,2.68,3.726,2.965,5.739,2.335,16.441,5.073,32.865,6.426,49.4,2.529,30.888,4.783,61.824,6,92.785.607,15.477-1.327,31.054-2.11,46.586-.145,2.874-.221,5.753-.441,8.622a7.938,7.938,0,0,1-7.928,7.206,7.858,7.858,0,0,1-7.713-7.02C540.573,536.7,540.223,528.083,539.956,522.708Z"/><path d="M468.417,355.025c2.027-4.868,3.45-10.109,6.188-14.538,10.292-16.652,22.243-32.032,37.877-44.079a47.327,47.327,0,0,1,25.173-10,7.984,7.984,0,0,1,8.541,7.422c.355,4.5-2.411,8.417-6.853,8.4-16.953-.05-29.538,8.972-40.9,19.9A252.435,252.435,0,0,0,476.825,346.4c-2.272,2.833-2.6,7.2-3.927,10.831a23.6,23.6,0,0,1-1.842,3.322c-.524-1.166-1.1-2.312-1.544-3.509a4.783,4.783,0,0,1-.028-1.562Z"/><path d="M824.991,328.247c.227,4.7-1.9,6.927-5.105,8-3.458,1.158-5.969-.616-8.089-3.3-5.654-7.168-10.687-15.031-17.307-21.173-6.4-5.942-14.5-10.051-21.8-15.047a21.685,21.685,0,0,1-2.98-3.022c1.4-.211,2.954-.931,4.171-.555,15.8,4.88,30.217,12.394,42.626,23.411,2.9,2.573,5.205,5.845,7.584,8.949A6.607,6.607,0,0,1,824.991,328.247Z"/></svg>