<svg id="Layer_1" data-name="Layer 1" xmlns="http://www.w3.org/2000/svg" viewBox="0 0 2215.65 2252.94"><defs><style>.cls-1,.cls-12{opacity:0.4;}.cls-10,.cls-11,.cls-17,.cls-18,.cls-19,.cls-2,.cls-20,.cls-22,.cls-23,.cls-25,.cls-26,.cls-3,.cls-4,.cls-5,.cls-6,.cls-7,.cls-8,.cls-9{isolation:isolate;}.cls-3{opacity:0.99;fill:#213549;}.cls-10,.cls-11,.cls-17,.cls-18,.cls-20,.cls-22,.cls-23,.cls-26,.cls-3,.cls-4,.cls-5,.cls-9{font-size:150px;}.cls-10,.cls-11,.cls-17,.cls-18,.cls-19,.cls-20,.cls-22,.cls-23,.cls-25,.cls-26,.cls-3,.cls-4,.cls-5,.cls-6,.cls-7,.cls-8,.cls-9{font-family:Helvetica;}.cls-20,.cls-26,.cls-3,.cls-5{letter-spacing:-0.08em;}.cls-10,.cls-11,.cls-17,.cls-18,.cls-19,.cls-20,.cls-22,.cls-23,.cls-25,.cls-26,.cls-4,.cls-5,.cls-6,.cls-7,.cls-8,.cls-9{fill:#213547;}.cls-4{letter-spacing:-0.12em;}.cls-19,.cls-25,.cls-6,.cls-7,.cls-8{font-size:140px;}.cls-6,.cls-7{letter-spacing:-0.06em;}.cls-7{opacity:0.8;}.cls-19,.cls-25,.cls-8{letter-spacing:-0.1em;}.cls-9{letter-spacing:0.24em;}.cls-10,.cls-17,.cls-22{letter-spacing:0.21em;}.cls-11,.cls-18,.cls-23{letter-spacing:0.14em;}.cls-12,.cls-14,.cls-16,.cls-24{fill:none;}.cls-13,.cls-14{opacity:0.3;}.cls-15,.cls-16,.cls-17,.cls-18,.cls-19,.cls-20{opacity:0.2;}.cls-21,.cls-22,.cls-23,.cls-24,.cls-25,.cls-26{opacity:0.1;}</style></defs><g id="NICKY_B" data-name="NICKY B" class="cls-1"><g class="cls-2"><text class="cls-3" transform="translate(380.25 895.86)">NICK</text><text class="cls-4" transform="translate(691.22 895.86)">Y</text><text class="cls-5" transform="translate(776.79 895.86)"><tspan xml:space="preserve"> B</tspan></text></g></g><g id="DOT" class="cls-1"><g class="cls-2"><text class="cls-6" transform="translate(378.98 995.32)">D</text><text class="cls-7" transform="translate(471.12 995.32)">O</text><text class="cls-8" transform="translate(571.06 995.32)">T</text></g></g><g id="COOL" class="cls-1"><g class="cls-2"><text class="cls-9" transform="translate(356.23 1094.32)">C</text><text class="cls-10" transform="translate(500.41 1094.32)">OO</text><text class="cls-11" transform="translate(797.36 1094.32)">L</text></g></g><rect class="cls-12" x="801.33" y="963.85" width="120.32" height="154.5"/><rect class="cls-12" x="828.68" y="981.63" width="73.83" height="116.22"/><g id="NICKY_B-2" data-name="NICKY B" class="cls-1"><g class="cls-2"><text class="cls-5" transform="translate(891.25 895.86)">NICK</text><text class="cls-4" transform="translate(1202.22 895.86)">Y</text><text class="cls-5" transform="translate(1287.79 895.86)"><tspan xml:space="preserve"> B</tspan></text></g></g><g id="DOT-2" data-name="DOT" class="cls-1"><g class="cls-2"><text class="cls-6" transform="translate(889.98 995.32)">D</text><text class="cls-7" transform="translate(982.12 995.32)">O</text><text class="cls-8" transform="translate(1082.06 995.32)">T</text></g></g><g id="COOL-2" data-name="COOL" class="cls-1"><g class="cls-2"><text class="cls-9" transform="translate(867.23 1094.32)">C</text><text class="cls-10" transform="translate(1011.41 1094.32)">OO</text><text class="cls-11" transform="translate(1308.36 1094.32)">L</text></g></g><rect class="cls-12" x="1312.33" y="963.85" width="120.32" height="154.5"/><rect class="cls-12" x="1339.68" y="981.63" width="73.83" height="116.22"/><g id="NICKY_B-3" data-name="NICKY B" class="cls-1"><g class="cls-2"><text class="cls-5" transform="translate(1403.25 895.86)">NICK</text><text class="cls-4" transform="translate(1714.22 895.86)">Y</text><text class="cls-5" transform="translate(1799.79 895.86)"><tspan xml:space="preserve"> B</tspan></text></g></g><g id="DOT-3" data-name="DOT" class="cls-1"><g class="cls-2"><text class="cls-6" transform="translate(1401.98 995.32)">D</text><text class="cls-7" transform="translate(1494.12 995.32)">O</text><text class="cls-8" transform="translate(1594.06 995.32)">T</text></g></g><g id="COOL-3" data-name="COOL" class="cls-1"><g class="cls-2"><text class="cls-9" transform="translate(1379.23 1094.32)">C</text><text class="cls-10" transform="translate(1523.41 1094.32)">OO</text><text class="cls-11" transform="translate(1820.36 1094.32)">L</text></g></g><rect class="cls-12" x="1824.33" y="963.85" width="120.32" height="154.5"/><rect class="cls-12" x="1851.68" y="981.63" width="73.83" height="116.22"/><g id="NICKY_B-4" data-name="NICKY B" class="cls-1"><g class="cls-2"><text class="cls-5" transform="translate(143.25 1202.86)">NICK</text><text class="cls-4" transform="translate(454.22 1202.86)">Y</text><text class="cls-5" transform="translate(539.79 1202.86)"><tspan xml:space="preserve"> B</tspan></text></g></g><g id="DOT-4" data-name="DOT" class="cls-1"><g class="cls-2"><text class="cls-6" transform="translate(141.98 1302.32)">D</text><text class="cls-7" transform="translate(234.12 1302.32)">O</text><text class="cls-8" transform="translate(334.06 1302.32)">T</text></g></g><g id="COOL-4" data-name="COOL" class="cls-1"><g class="cls-2"><text class="cls-9" transform="translate(119.23 1401.32)">C</text><text class="cls-10" transform="translate(263.41 1401.32)">OO</text><text class="cls-11" transform="translate(560.36 1401.32)">L</text></g></g><rect class="cls-12" x="564.33" y="1270.85" width="120.32" height="154.5"/><rect class="cls-12" x="591.68" y="1288.63" width="73.83" height="116.22"/><g id="NICKY_B-5" data-name="NICKY B" class="cls-1"><g class="cls-2"><text class="cls-5" transform="translate(653.25 1207.86)">NICK</text><text class="cls-4" transform="translate(964.22 1207.86)">Y</text><text class="cls-5" transform="translate(1049.79 1207.86)"><tspan xml:space="preserve"> B</tspan></text></g></g><g id="DOT-5" data-name="DOT" class="cls-1"><g class="cls-2"><text class="cls-6" transform="translate(651.98 1307.32)">D</text><text class="cls-7" transform="translate(744.12 1307.32)">O</text><text class="cls-8" transform="translate(844.06 1307.32)">T</text></g></g><g id="COOL-5" data-name="COOL" class="cls-1"><g class="cls-2"><text class="cls-9" transform="translate(629.23 1406.32)">C</text><text class="cls-10" transform="translate(773.41 1406.32)">OO</text><text class="cls-11" transform="translate(1070.36 1406.32)">L</text></g></g><rect class="cls-12" x="1074.33" y="1275.85" width="120.32" height="154.5"/><rect class="cls-12" x="1101.68" y="1293.63" width="73.83" height="116.22"/><g id="NICKY_B-6" data-name="NICKY B" class="cls-1"><g class="cls-2"><text class="cls-5" transform="translate(1164.25 1208.86)">NICK</text><text class="cls-4" transform="translate(1475.22 1208.86)">Y</text><text class="cls-5" transform="translate(1560.79 1208.86)"><tspan xml:space="preserve"> B</tspan></text></g></g><g id="DOT-6" data-name="DOT" class="cls-1"><g class="cls-2"><text class="cls-6" transform="translate(1162.98 1308.32)">D</text><text class="cls-7" transform="translate(1255.12 1308.32)">O</text><text class="cls-8" transform="translate(1355.06 1308.32)">T</text></g></g><g id="COOL-6" data-name="COOL" class="cls-1"><g class="cls-2"><text class="cls-9" transform="translate(1140.23 1407.32)">C</text><text class="cls-10" transform="translate(1284.41 1407.32)">OO</text><text class="cls-11" transform="translate(1581.36 1407.32)">L</text></g></g><rect class="cls-12" x="1585.33" y="1276.85" width="120.32" height="154.5"/><rect class="cls-12" x="1612.68" y="1294.63" width="73.83" height="116.22"/><g id="NICKY_B-7" data-name="NICKY B" class="cls-1"><g class="cls-2"><text class="cls-5" transform="translate(1674.25 1208.86)">NICK</text><text class="cls-4" transform="translate(1985.22 1208.86)">Y</text><text class="cls-5" transform="translate(2070.79 1208.86)"><tspan xml:space="preserve"> B</tspan></text></g></g><g id="DOT-7" data-name="DOT" class="cls-1"><g class="cls-2"><text class="cls-6" transform="translate(1672.98 1308.32)">D</text><text class="cls-7" transform="translate(1765.12 1308.32)">O</text><text class="cls-8" transform="translate(1865.06 1308.32)">T</text></g></g><g id="COOL-7" data-name="COOL" class="cls-1"><g class="cls-2"><text class="cls-9" transform="translate(1650.23 1407.32)">C</text><text class="cls-10" transform="translate(1794.41 1407.32)">OO</text><text class="cls-11" transform="translate(2091.36 1407.32)">L</text></g></g><rect class="cls-12" x="2095.33" y="1276.85" width="120.32" height="154.5"/><rect class="cls-12" x="2122.68" y="1294.63" width="73.83" height="116.22"/><g id="NICKY_B-8" data-name="NICKY B" class="cls-1"><g class="cls-2"><text class="cls-5" transform="translate(382.25 1512.86)">NICK</text><text class="cls-4" transform="translate(693.22 1512.86)">Y</text><text class="cls-5" transform="translate(778.79 1512.86)"><tspan xml:space="preserve"> B</tspan></text></g></g><g id="DOT-8" data-name="DOT" class="cls-1"><g class="cls-2"><text class="cls-6" transform="translate(380.98 1612.32)">D</text><text class="cls-7" transform="translate(473.12 1612.32)">O</text><text class="cls-8" transform="translate(573.06 1612.32)">T</text></g></g><g id="COOL-8" data-name="COOL" class="cls-1"><g class="cls-2"><text class="cls-9" transform="translate(358.23 1711.32)">C</text><text class="cls-10" transform="translate(502.41 1711.32)">OO</text><text class="cls-11" transform="translate(799.36 1711.32)">L</text></g></g><rect class="cls-12" x="803.33" y="1580.85" width="120.32" height="154.5"/><rect class="cls-12" x="830.68" y="1598.63" width="73.83" height="116.22"/><g id="NICKY_B-9" data-name="NICKY B" class="cls-1"><g class="cls-2"><text class="cls-5" transform="translate(892.25 1516.86)">NICK</text><text class="cls-4" transform="translate(1203.22 1516.86)">Y</text><text class="cls-5" transform="translate(1288.79 1516.86)"><tspan xml:space="preserve"> B</tspan></text></g></g><g id="DOT-9" data-name="DOT" class="cls-1"><g class="cls-2"><text class="cls-6" transform="translate(890.98 1616.32)">D</text><text class="cls-7" transform="translate(983.12 1616.32)">O</text><text class="cls-8" transform="translate(1083.06 1616.32)">T</text></g></g><g id="COOL-9" data-name="COOL" class="cls-1"><g class="cls-2"><text class="cls-9" transform="translate(868.23 1715.32)">C</text><text class="cls-10" transform="translate(1012.41 1715.32)">OO</text><text class="cls-11" transform="translate(1309.36 1715.32)">L</text></g></g><rect class="cls-12" x="1313.33" y="1584.85" width="120.32" height="154.5"/><rect class="cls-12" x="1340.68" y="1602.63" width="73.83" height="116.22"/><g id="NICKY_B-10" data-name="NICKY B" class="cls-1"><g class="cls-2"><text class="cls-5" transform="translate(1400.25 1516.86)">NICK</text><text class="cls-4" transform="translate(1711.22 1516.86)">Y</text><text class="cls-5" transform="translate(1796.79 1516.86)"><tspan xml:space="preserve"> B</tspan></text></g></g><g id="DOT-10" data-name="DOT" class="cls-1"><g class="cls-2"><text class="cls-6" transform="translate(1398.98 1616.32)">D</text><text class="cls-7" transform="translate(1491.12 1616.32)">O</text><text class="cls-8" transform="translate(1591.06 1616.32)">T</text></g></g><g id="COOL-10" data-name="COOL" class="cls-1"><g class="cls-2"><text class="cls-9" transform="translate(1376.23 1715.32)">C</text><text class="cls-10" transform="translate(1520.41 1715.32)">OO</text><text class="cls-11" transform="translate(1817.36 1715.32)">L</text></g></g><rect class="cls-12" x="1821.33" y="1584.85" width="120.32" height="154.5"/><rect class="cls-12" x="1848.68" y="1602.63" width="73.83" height="116.22"/><g id="NICKY_B-11" data-name="NICKY B" class="cls-13"><g class="cls-2"><text class="cls-5" transform="translate(247.21 1107.99) rotate(-18.66)">NICK</text><text class="cls-4" transform="translate(541.84 1008.5) rotate(-18.66)">Y</text><text class="cls-5" transform="translate(622.91 981.12) rotate(-18.66)"><tspan xml:space="preserve"> B</tspan></text></g></g><g id="DOT-11" data-name="DOT" class="cls-13"><g class="cls-2"><text class="cls-6" transform="translate(277.83 1202.63) rotate(-18.66)">D</text><text class="cls-7" transform="translate(365.13 1173.15) rotate(-18.66)">O</text><text class="cls-8" transform="translate(459.81 1141.17) rotate(-18.66)">T</text></g></g><g id="COOL-11" data-name="COOL" class="cls-13"><g class="cls-2"><text class="cls-9" transform="translate(287.95 1303.71) rotate(-18.66)">C</text><text class="cls-10" transform="translate(424.55 1257.57) rotate(-18.66)">OO</text><text class="cls-11" transform="translate(705.89 1162.57) rotate(-18.66)">L</text></g></g><rect class="cls-14" x="297.6" y="226.93" width="120.32" height="154.5" transform="translate(313.35 917.9) rotate(-18.66)"/><rect class="cls-14" x="324.3" y="243.47" width="73.83" height="116.22" transform="translate(314.36 918.87) rotate(-18.66)"/><g id="NICKY_B-12" data-name="NICKY B" class="cls-13"><g class="cls-2"><text class="cls-5" transform="translate(731.35 944.5) rotate(-18.66)">NICK</text><text class="cls-4" transform="translate(1025.97 845) rotate(-18.66)">Y</text><text class="cls-5" transform="translate(1107.05 817.62) rotate(-18.66)"><tspan xml:space="preserve"> B</tspan></text></g></g><g id="DOT-12" data-name="DOT" class="cls-13"><g class="cls-2"><text class="cls-6" transform="translate(761.97 1039.14) rotate(-18.66)">D</text><text class="cls-7" transform="translate(849.27 1009.66) rotate(-18.66)">O</text><text class="cls-8" transform="translate(943.95 977.68) rotate(-18.66)">T</text></g></g><g id="COOL-12" data-name="COOL" class="cls-13"><g class="cls-2"><text class="cls-9" transform="translate(772.09 1140.21) rotate(-18.66)">C</text><text class="cls-10" transform="translate(908.69 1094.08) rotate(-18.66)">OO</text><text class="cls-11" transform="translate(1190.03 999.07) rotate(-18.66)">L</text></g></g><rect class="cls-14" x="781.74" y="63.44" width="120.32" height="154.5" transform="translate(391.11 1064.2) rotate(-18.66)"/><rect class="cls-14" x="808.44" y="79.97" width="73.83" height="116.22" transform="translate(392.12 1065.17) rotate(-18.66)"/><g id="NICKY_B-13" data-name="NICKY B" class="cls-13"><g class="cls-2"><text class="cls-5" transform="translate(1216.44 780.68) rotate(-18.66)">NICK</text><text class="cls-4" transform="translate(1511.06 681.19) rotate(-18.66)">Y</text><text class="cls-5" transform="translate(1592.13 653.81) rotate(-18.66)"><tspan xml:space="preserve"> B</tspan></text></g></g><g id="DOT-13" data-name="DOT" class="cls-13"><g class="cls-2"><text class="cls-6" transform="translate(1247.06 875.32) rotate(-18.66)">D</text><text class="cls-7" transform="translate(1334.35 845.84) rotate(-18.66)">O</text><text class="cls-8" transform="translate(1429.04 813.86) rotate(-18.66)">T</text></g></g><g id="COOL-13" data-name="COOL" class="cls-13"><g class="cls-2"><text class="cls-9" transform="translate(1257.18 976.4) rotate(-18.66)">C</text><text class="cls-10" transform="translate(1393.78 930.27) rotate(-18.66)">OO</text><text class="cls-11" transform="translate(1675.12 835.26) rotate(-18.66)">L</text></g></g><rect class="cls-14" x="1266.83" y="-100.38" width="120.32" height="154.5" transform="translate(469.02 1210.8) rotate(-18.66)"/><rect class="cls-14" x="1293.53" y="-83.84" width="73.83" height="116.22" transform="translate(470.03 1211.77) rotate(-18.66)"/><g id="NICKY_B-14" data-name="NICKY B" class="cls-13"><g class="cls-2"><text class="cls-5" transform="translate(120.89 1474.68) rotate(-18.66)">NICK</text><text class="cls-4" transform="translate(415.52 1375.19) rotate(-18.66)">Y</text><text class="cls-5" transform="translate(496.59 1347.81) rotate(-18.66)"><tspan xml:space="preserve"> B</tspan></text></g></g><g id="DOT-14" data-name="DOT" class="cls-13"><g class="cls-2"><text class="cls-6" transform="translate(151.51 1569.32) rotate(-18.66)">D</text><text class="cls-7" transform="translate(238.81 1539.84) rotate(-18.66)">O</text><text class="cls-8" transform="translate(333.5 1507.86) rotate(-18.66)">T</text></g></g><g id="COOL-14" data-name="COOL" class="cls-13"><g class="cls-2"><text class="cls-9" transform="translate(161.63 1670.4) rotate(-18.66)">C</text><text class="cls-10" transform="translate(298.24 1624.27) rotate(-18.66)">OO</text><text class="cls-11" transform="translate(579.58 1529.26) rotate(-18.66)">L</text></g></g><rect class="cls-14" x="171.28" y="593.62" width="120.32" height="154.5" transform="translate(189.38 896.76) rotate(-18.66)"/><rect class="cls-14" x="197.98" y="610.16" width="73.83" height="116.22" transform="translate(190.4 897.73) rotate(-18.66)"/><g id="NICKY_B-15" data-name="NICKY B" class="cls-13"><g class="cls-2"><text class="cls-5" transform="translate(605.69 1316.24) rotate(-18.66)">NICK</text><text class="cls-4" transform="translate(900.31 1216.75) rotate(-18.66)">Y</text><text class="cls-5" transform="translate(981.38 1189.37) rotate(-18.66)"><tspan xml:space="preserve"> B</tspan></text></g></g><g id="DOT-15" data-name="DOT" class="cls-13"><g class="cls-2"><text class="cls-6" transform="translate(636.3 1410.88) rotate(-18.66)">D</text><text class="cls-7" transform="translate(723.6 1381.4) rotate(-18.66)">O</text><text class="cls-8" transform="translate(818.29 1349.43) rotate(-18.66)">T</text></g></g><g id="COOL-15" data-name="COOL" class="cls-13"><g class="cls-2"><text class="cls-9" transform="translate(646.43 1511.96) rotate(-18.66)">C</text><text class="cls-10" transform="translate(783.03 1465.83) rotate(-18.66)">OO</text><text class="cls-11" transform="translate(1064.37 1370.82) rotate(-18.66)">L</text></g></g><rect class="cls-14" x="656.08" y="435.18" width="120.32" height="154.5" transform="translate(265.56 1043.54) rotate(-18.66)"/><rect class="cls-14" x="682.77" y="451.72" width="73.83" height="116.22" transform="translate(266.57 1044.51) rotate(-18.66)"/><g id="NICKY_B-16" data-name="NICKY B" class="cls-13"><g class="cls-2"><text class="cls-5" transform="translate(1090.14 1153.7) rotate(-18.66)">NICK</text><text class="cls-4" transform="translate(1384.77 1054.2) rotate(-18.66)">Y</text><text class="cls-5" transform="translate(1465.84 1026.82) rotate(-18.66)"><tspan xml:space="preserve"> B</tspan></text></g></g><g id="DOT-16" data-name="DOT" class="cls-13"><g class="cls-2"><text class="cls-6" transform="translate(1120.76 1248.34) rotate(-18.66)">D</text><text class="cls-7" transform="translate(1208.06 1218.86) rotate(-18.66)">O</text><text class="cls-8" transform="translate(1302.75 1186.88) rotate(-18.66)">T</text></g></g><g id="COOL-16" data-name="COOL" class="cls-13"><g class="cls-2"><text class="cls-9" transform="translate(1130.88 1349.41) rotate(-18.66)">C</text><text class="cls-10" transform="translate(1267.49 1303.28) rotate(-18.66)">OO</text><text class="cls-11" transform="translate(1548.83 1208.27) rotate(-18.66)">L</text></g></g><rect class="cls-14" x="1140.53" y="272.64" width="120.32" height="154.5" transform="translate(343.03 1190) rotate(-18.66)"/><rect class="cls-14" x="1167.23" y="289.18" width="73.83" height="116.22" transform="matrix(0.95, -0.32, 0.32, 0.95, 344.05, 1190.97)"/><g id="NICKY_B-17" data-name="NICKY B" class="cls-13"><g class="cls-2"><text class="cls-5" transform="translate(1573.34 990.52) rotate(-18.66)">NICK</text><text class="cls-4" transform="translate(1867.96 891.03) rotate(-18.66)">Y</text><text class="cls-5" transform="translate(1949.03 863.65) rotate(-18.66)"><tspan xml:space="preserve"> B</tspan></text></g></g><g id="DOT-17" data-name="DOT" class="cls-13"><g class="cls-2"><text class="cls-6" transform="translate(1603.95 1085.16) rotate(-18.66)">D</text><text class="cls-7" transform="translate(1691.25 1055.68) rotate(-18.66)">O</text><text class="cls-8" transform="translate(1785.94 1023.7) rotate(-18.66)">T</text></g></g><g id="COOL-17" data-name="COOL" class="cls-13"><g class="cls-2"><text class="cls-9" transform="translate(1614.08 1186.24) rotate(-18.66)">C</text><text class="cls-10" transform="translate(1750.68 1140.11) rotate(-18.66)">OO</text><text class="cls-11" transform="translate(2032.02 1045.1) rotate(-18.66)">L</text></g></g><rect class="cls-14" x="-21.48" y="-768.46" width="120.32" height="154.5" transform="translate(713.12 728.23) rotate(-27.29)"/><rect class="cls-14" x="4.79" y="-752.41" width="73.83" height="116.22" transform="translate(714.88 729.27) rotate(-27.29)"/><g id="NICKY_B-18" data-name="NICKY B" class="cls-13"><g class="cls-2"><text class="cls-5" transform="translate(446.52 1691.92) rotate(-18.66)">NICK</text><text class="cls-4" transform="translate(741.14 1592.42) rotate(-18.66)">Y</text><text class="cls-5" transform="translate(822.21 1565.05) rotate(-18.66)"><tspan xml:space="preserve"> B</tspan></text></g></g><g id="DOT-18" data-name="DOT" class="cls-13"><g class="cls-2"><text class="cls-6" transform="translate(477.14 1786.56) rotate(-18.66)">D</text><text class="cls-7" transform="translate(564.43 1757.08) rotate(-18.66)">O</text><text class="cls-8" transform="translate(659.12 1725.1) rotate(-18.66)">T</text></g></g><g id="COOL-18" data-name="COOL" class="cls-13"><g class="cls-2"><text class="cls-9" transform="translate(799.26 1363.63) rotate(-18.66)">C</text><text class="cls-10" transform="translate(935.86 1317.5) rotate(-18.66)">OO</text><text class="cls-11" transform="translate(1217.2 1222.49) rotate(-18.66)">L</text></g></g><rect class="cls-14" x="496.91" y="810.86" width="120.32" height="154.5" transform="translate(137 1012.36) rotate(-18.66)"/><rect class="cls-14" x="523.6" y="827.4" width="73.83" height="116.22" transform="matrix(0.95, -0.32, 0.32, 0.95, 138.01, 1013.33)"/><g id="NICKY_B-19" data-name="NICKY B" class="cls-13"><g class="cls-2"><text class="cls-5" transform="translate(930.99 1532.53) rotate(-18.66)">NICK</text><text class="cls-4" transform="translate(1225.61 1433.04) rotate(-18.66)">Y</text><text class="cls-5" transform="translate(1306.68 1405.66) rotate(-18.66)"><tspan xml:space="preserve"> B</tspan></text></g></g><g id="DOT-19" data-name="DOT" class="cls-13"><g class="cls-2"><text class="cls-6" transform="translate(961.61 1627.17) rotate(-18.66)">D</text><text class="cls-7" transform="translate(1048.9 1597.69) rotate(-18.66)">O</text><text class="cls-8" transform="translate(1143.59 1565.72) rotate(-18.66)">T</text></g></g><g id="COOL-19" data-name="COOL" class="cls-13"><g class="cls-2"><text class="cls-9" transform="translate(971.73 1728.25) rotate(-18.66)">C</text><text class="cls-10" transform="translate(1108.33 1682.12) rotate(-18.66)">OO</text><text class="cls-11" transform="translate(1389.67 1587.11) rotate(-18.66)">L</text></g></g><rect class="cls-14" x="981.38" y="651.47" width="120.32" height="154.5" transform="translate(213.46 1158.99) rotate(-18.66)"/><rect class="cls-14" x="1008.08" y="668.01" width="73.83" height="116.22" transform="translate(214.47 1159.96) rotate(-18.66)"/><g id="NICKY_B-20" data-name="NICKY B" class="cls-13"><g class="cls-2"><text class="cls-5" transform="translate(1412.28 1370) rotate(-18.66)">NICK</text><text class="cls-4" transform="translate(1706.91 1270.5) rotate(-18.66)">Y</text><text class="cls-5" transform="translate(1787.98 1243.13) rotate(-18.66)"><tspan xml:space="preserve"> B</tspan></text></g></g><g id="DOT-20" data-name="DOT" class="cls-13"><g class="cls-2"><text class="cls-6" transform="translate(1442.9 1464.64) rotate(-18.66)">D</text><text class="cls-7" transform="translate(1530.2 1435.16) rotate(-18.66)">O</text><text class="cls-8" transform="translate(1624.89 1403.18) rotate(-18.66)">T</text></g></g><g id="COOL-20" data-name="COOL" class="cls-1"><g class="cls-2"><text class="cls-9" transform="translate(1453.02 1565.71) rotate(-18.66)">C</text><text class="cls-10" transform="translate(1589.62 1519.58) rotate(-18.66)">OO</text><text class="cls-11" transform="translate(1870.97 1424.57) rotate(-18.66)">L</text></g></g><rect class="cls-14" x="-123.74" y="-369.1" width="120.32" height="154.5" transform="translate(518.61 725.8) rotate(-27.29)"/><rect class="cls-14" x="-97.47" y="-353.06" width="73.83" height="116.22" transform="translate(520.37 726.84) rotate(-27.29)"/><g id="NICKY_B-21" data-name="NICKY B" class="cls-15"><g class="cls-2"><text class="cls-5" transform="matrix(0.01, -1, 1, 0.01, 690.9, 1984.38)">NICK</text><text class="cls-4" transform="matrix(0.01, -1, 1, 0.01, 694.97, 1673.44)">Y</text><text class="cls-5" transform="matrix(0.01, -1, 1, 0.01, 696.09, 1587.88)"><tspan xml:space="preserve"> B</tspan></text></g></g><g id="DOT-21" data-name="DOT" class="cls-15"><g class="cls-2"><text class="cls-6" transform="matrix(0.01, -1, 1, 0.01, 790.34, 1986.95)">D</text><text class="cls-7" transform="matrix(0.01, -1, 1, 0.01, 791.54, 1894.82)">O</text><text class="cls-8" transform="matrix(0.01, -1, 1, 0.01, 792.85, 1794.89)">T</text></g></g><g id="COOL-21" data-name="COOL" class="cls-15"><g class="cls-2"><text class="cls-9" transform="matrix(0.01, -1, 1, 0.01, 889.03, 2011)">C</text><text class="cls-10" transform="matrix(0.01, -1, 1, 0.01, 890.92, 1866.83)">OO</text><text class="cls-11" transform="matrix(0.01, -1, 1, 0.01, 894.81, 1569.9)">L</text></g></g><rect class="cls-16" x="390.41" y="640.39" width="120.32" height="154.5" transform="matrix(0.01, -1, 1, 0.01, 118.95, 1946.22)"/><rect class="cls-16" x="412.35" y="655.41" width="73.83" height="116.22" transform="translate(121.78 1940.84) rotate(-89.25)"/><g id="NICKY_B-22" data-name="NICKY B" class="cls-15"><g class="cls-2"><text class="cls-5" transform="matrix(0.01, -1, 1, 0.01, 697.59, 1473.42)">NICK</text><text class="cls-4" transform="matrix(0.01, -1, 1, 0.01, 701.66, 1162.48)">Y</text><text class="cls-5" transform="matrix(0.01, -1, 1, 0.01, 702.79, 1076.92)"><tspan xml:space="preserve"> B</tspan></text></g></g><g id="DOT-22" data-name="DOT" class="cls-15"><g class="cls-2"><text class="cls-6" transform="matrix(0.01, -1, 1, 0.01, 797.03, 1476)">D</text><text class="cls-7" transform="matrix(0.01, -1, 1, 0.01, 798.23, 1383.86)">O</text><text class="cls-8" transform="matrix(0.01, -1, 1, 0.01, 799.54, 1283.93)">T</text></g></g><g id="COOL-22" data-name="COOL" class="cls-15"><g class="cls-2"><text class="cls-9" transform="matrix(0.01, -1, 1, 0.01, 895.72, 1500.04)">C</text><text class="cls-10" transform="matrix(0.01, -1, 1, 0.01, 897.61, 1355.87)">OO</text><text class="cls-11" transform="matrix(0.01, -1, 1, 0.01, 901.5, 1058.95)">L</text></g></g><rect class="cls-16" x="397.1" y="129.44" width="120.32" height="154.5" transform="matrix(0.01, -1, 1, 0.01, 636.47, 1448.64)"/><rect class="cls-16" x="419.04" y="144.45" width="73.83" height="116.22" transform="translate(639.3 1443.27) rotate(-89.25)"/><g id="NICKY_B-23" data-name="NICKY B" class="cls-15"><g class="cls-2"><text class="cls-5" transform="matrix(0.01, -1, 1, 0.01, 704.3, 961.47)">NICK</text><text class="cls-4" transform="matrix(0.01, -1, 1, 0.01, 708.37, 650.53)">Y</text><text class="cls-5" transform="matrix(0.01, -1, 1, 0.01, 709.49, 564.96)"><tspan xml:space="preserve"> B</tspan></text></g></g><g id="DOT-23" data-name="DOT" class="cls-15"><g class="cls-2"><text class="cls-6" transform="matrix(0.01, -1, 1, 0.01, 803.73, 964.04)">D</text><text class="cls-7" transform="matrix(0.01, -1, 1, 0.01, 804.94, 871.91)">O</text><text class="cls-8" transform="matrix(0.01, -1, 1, 0.01, 806.25, 771.98)">T</text></g></g><g id="COOL-23" data-name="COOL" class="cls-15"><g class="cls-2"><text class="cls-9" transform="matrix(0.01, -1, 1, 0.01, 902.43, 988.08)">C</text><text class="cls-10" transform="matrix(0.01, -1, 1, 0.01, 904.31, 843.92)">OO</text><text class="cls-11" transform="matrix(0.01, -1, 1, 0.01, 908.2, 546.99)">L</text></g></g><rect class="cls-16" x="403.8" y="-382.52" width="120.32" height="154.5" transform="matrix(0.01, -1, 1, 0.01, 1155, 950.09)"/><rect class="cls-16" x="425.74" y="-367.5" width="73.83" height="116.22" transform="translate(1157.83 944.72) rotate(-89.25)"/><g id="NICKY_B-24" data-name="NICKY B" class="cls-15"><g class="cls-2"><text class="cls-5" transform="matrix(0.01, -1, 1, 0.01, 994.77, 2225.38)">NICK</text><text class="cls-4" transform="matrix(0.01, -1, 1, 0.01, 998.84, 1914.44)">Y</text><text class="cls-5" transform="matrix(0.01, -1, 1, 0.01, 999.97, 1828.87)"><tspan xml:space="preserve"> B</tspan></text></g></g><g id="DOT-24" data-name="DOT" class="cls-15"><g class="cls-2"><text class="cls-6" transform="matrix(0.01, -1, 1, 0.01, 1094.21, 2227.95)">D</text><text class="cls-7" transform="matrix(0.01, -1, 1, 0.01, 1095.41, 2135.82)">O</text><text class="cls-8" transform="matrix(0.01, -1, 1, 0.01, 1096.72, 2035.89)">T</text></g></g><g id="COOL-24" data-name="COOL" class="cls-15"><g class="cls-2"><text class="cls-9" transform="matrix(0.01, -1, 1, 0.01, 1192.9, 2252)">C</text><text class="cls-10" transform="matrix(0.01, -1, 1, 0.01, 1194.79, 2107.83)">OO</text><text class="cls-11" transform="matrix(0.01, -1, 1, 0.01, 1198.68, 1810.9)">L</text></g></g><rect class="cls-16" x="694.28" y="881.39" width="120.32" height="154.5" transform="translate(177.86 2487.9) rotate(-89.25)"/><rect class="cls-16" x="716.22" y="896.41" width="73.83" height="116.22" transform="translate(180.7 2482.53) rotate(-89.25)"/><g id="NICKY_B-25" data-name="NICKY B" class="cls-15"><g class="cls-2"><text class="cls-5" transform="matrix(0.01, -1, 1, 0.01, 1006.45, 1715.49)">NICK</text><text class="cls-4" transform="matrix(0.01, -1, 1, 0.01, 1010.52, 1404.55)">Y</text><text class="cls-5" transform="matrix(0.01, -1, 1, 0.01, 1011.64, 1318.98)"><tspan xml:space="preserve"> B</tspan></text></g></g><g id="DOT-25" data-name="DOT" class="cls-15"><g class="cls-2"><text class="cls-6" transform="matrix(0.01, -1, 1, 0.01, 1105.89, 1718.06)">D</text><text class="cls-7" transform="matrix(0.01, -1, 1, 0.01, 1107.09, 1625.93)">O</text><text class="cls-8" transform="matrix(0.01, -1, 1, 0.01, 1108.4, 1526)">T</text></g></g><g id="COOL-25" data-name="COOL" class="cls-15"><g class="cls-2"><text class="cls-9" transform="matrix(0.01, -1, 1, 0.01, 1204.58, 1742.11)">C</text><text class="cls-10" transform="matrix(0.01, -1, 1, 0.01, 1206.47, 1597.94)">OO</text><text class="cls-11" transform="matrix(0.01, -1, 1, 0.01, 1210.35, 1301.01)">L</text></g></g><rect class="cls-16" x="705.96" y="371.5" width="120.32" height="154.5" transform="translate(699.24 1996.37) rotate(-89.25)"/><rect class="cls-16" x="727.89" y="386.52" width="73.83" height="116.22" transform="translate(702.07 1990.99) rotate(-89.25)"/><g id="NICKY_B-26" data-name="NICKY B" class="cls-15"><g class="cls-2"><text class="cls-5" transform="matrix(0.01, -1, 1, 0.01, 1014.14, 1204.55)">NICK</text><text class="cls-4" transform="matrix(0.01, -1, 1, 0.01, 1018.21, 893.6)">Y</text><text class="cls-5" transform="matrix(0.01, -1, 1, 0.01, 1019.33, 808.04)"><tspan xml:space="preserve"> B</tspan></text></g></g><g id="DOT-26" data-name="DOT" class="cls-15"><g class="cls-2"><text class="cls-6" transform="matrix(0.01, -1, 1, 0.01, 1113.58, 1207.12)">D</text><text class="cls-7" transform="matrix(0.01, -1, 1, 0.01, 1114.78, 1114.99)">O</text><text class="cls-8" transform="matrix(0.01, -1, 1, 0.01, 1116.09, 1015.06)">T</text></g></g><g id="COOL-26" data-name="COOL" class="cls-15"><g class="cls-2"><text class="cls-9" transform="matrix(0.01, -1, 1, 0.01, 1212.27, 1231.16)">C</text><text class="cls-10" transform="matrix(0.01, -1, 1, 0.01, 1214.16, 1086.99)">OO</text><text class="cls-11" transform="matrix(0.01, -1, 1, 0.01, 1218.05, 790.07)">L</text></g></g><rect class="cls-16" x="713.65" y="-139.44" width="120.32" height="154.5" transform="translate(1217.73 1499.8) rotate(-89.25)"/><rect class="cls-16" x="735.58" y="-124.43" width="73.83" height="116.22" transform="translate(1220.56 1494.43) rotate(-89.25)"/><g id="NICKY_B-27" data-name="NICKY B" class="cls-15"><g class="cls-2"><text class="cls-5" transform="matrix(0.01, -1, 1, 0.01, 1020.82, 694.59)">NICK</text><text class="cls-4" transform="matrix(0.01, -1, 1, 0.01, 1024.89, 383.65)">Y</text><text class="cls-5" transform="matrix(0.01, -1, 1, 0.01, 1026.01, 298.08)"><tspan xml:space="preserve"> B</tspan></text></g></g><g id="DOT-27" data-name="DOT" class="cls-15"><g class="cls-2"><text class="cls-6" transform="matrix(0.01, -1, 1, 0.01, 1120.25, 697.16)">D</text><text class="cls-7" transform="matrix(0.01, -1, 1, 0.01, 1121.46, 605.03)">O</text><text class="cls-8" transform="matrix(0.01, -1, 1, 0.01, 1122.77, 505.1)">T</text></g></g><g id="COOL-27" data-name="COOL" class="cls-15"><g class="cls-2"><text class="cls-9" transform="matrix(0.01, -1, 1, 0.01, 1218.95, 721.21)">C</text><text class="cls-10" transform="matrix(0.01, -1, 1, 0.01, 1220.84, 577.04)">OO</text><text class="cls-11" transform="matrix(0.01, -1, 1, 0.01, 1224.72, 280.11)">L</text></g></g><rect class="cls-16" x="720.32" y="-649.4" width="120.32" height="154.5" transform="translate(1734.23 1003.2) rotate(-89.25)"/><rect class="cls-16" x="742.26" y="-634.38" width="73.83" height="116.22" transform="translate(1737.06 997.83) rotate(-89.25)"/><g id="NICKY_B-28" data-name="NICKY B" class="cls-15"><g class="cls-2"><text class="cls-5" transform="matrix(0.01, -1, 1, 0.01, 1307.88, 1990.46)">NICK</text><text class="cls-4" transform="matrix(0.01, -1, 1, 0.01, 1311.95, 1679.52)">Y</text><text class="cls-5" transform="matrix(0.01, -1, 1, 0.01, 1313.07, 1593.95)"><tspan xml:space="preserve"> B</tspan></text></g></g><g id="DOT-28" data-name="DOT" class="cls-15"><g class="cls-2"><text class="cls-6" transform="matrix(0.01, -1, 1, 0.01, 1407.31, 1993.03)">D</text><text class="cls-7" transform="matrix(0.01, -1, 1, 0.01, 1408.52, 1900.9)">O</text><text class="cls-8" transform="matrix(0.01, -1, 1, 0.01, 1409.83, 1800.97)">T</text></g></g><g id="COOL-28" data-name="COOL" class="cls-15"><g class="cls-2"><text class="cls-9" transform="matrix(0.01, -1, 1, 0.01, 1506, 2017.08)">C</text><text class="cls-10" transform="matrix(0.01, -1, 1, 0.01, 1507.89, 1872.91)">OO</text><text class="cls-11" transform="matrix(0.01, -1, 1, 0.01, 1511.78, 1575.99)">L</text></g></g><rect class="cls-16" x="1007.38" y="646.47" width="120.32" height="154.5" transform="translate(721.77 2569.14) rotate(-89.25)"/><rect class="cls-16" x="1029.32" y="661.49" width="73.83" height="116.22" transform="translate(724.6 2563.76) rotate(-89.25)"/><g id="NICKY_B-29" data-name="NICKY B" class="cls-15"><g class="cls-2"><text class="cls-5" transform="matrix(0.01, -1, 1, 0.01, 1318.55, 1480.56)">NICK</text><text class="cls-4" transform="matrix(0.01, -1, 1, 0.01, 1322.62, 1169.61)">Y</text><text class="cls-5" transform="matrix(0.01, -1, 1, 0.01, 1323.75, 1084.05)"><tspan xml:space="preserve"> B</tspan></text></g></g><g id="DOT-29" data-name="DOT" class="cls-15"><g class="cls-2"><text class="cls-6" transform="matrix(0.01, -1, 1, 0.01, 1417.99, 1483.13)">D</text><text class="cls-7" transform="matrix(0.01, -1, 1, 0.01, 1419.19, 1391)">O</text><text class="cls-8" transform="matrix(0.01, -1, 1, 0.01, 1420.5, 1291.07)">T</text></g></g><g id="COOL-29" data-name="COOL" class="cls-15"><g class="cls-2"><text class="cls-9" transform="matrix(0.01, -1, 1, 0.01, 1516.68, 1507.17)">C</text><text class="cls-10" transform="matrix(0.01, -1, 1, 0.01, 1518.57, 1363)">OO</text><text class="cls-11" transform="matrix(0.01, -1, 1, 0.01, 1522.46, 1066.08)">L</text></g></g><rect class="cls-16" x="1018.06" y="136.57" width="120.32" height="154.5" transform="matrix(0.01, -1, 1, 0.01, 1242.17, 2076.58)"/><rect class="cls-16" x="1040" y="151.58" width="73.83" height="116.22" transform="translate(1245 2071.21) rotate(-89.25)"/><g id="NICKY_B-30" data-name="NICKY B" class="cls-15"><g class="cls-2"><text class="cls-5" transform="matrix(0.01, -1, 1, 0.01, 1325.2, 972.6)">NICK</text><text class="cls-4" transform="matrix(0.01, -1, 1, 0.01, 1329.28, 661.66)">Y</text><text class="cls-5" transform="matrix(0.01, -1, 1, 0.01, 1330.4, 576.09)"><tspan xml:space="preserve"> B</tspan></text></g></g><g id="DOT-30" data-name="DOT" class="cls-15"><g class="cls-2"><text class="cls-6" transform="matrix(0.01, -1, 1, 0.01, 1424.64, 975.17)">D</text><text class="cls-7" transform="matrix(0.01, -1, 1, 0.01, 1425.85, 883.04)">O</text><text class="cls-8" transform="matrix(0.01, -1, 1, 0.01, 1427.15, 783.11)">T</text></g></g><g id="COOL-30" data-name="COOL" class="cls-15"><g class="cls-2"><text class="cls-9" transform="matrix(0.01, -1, 1, 0.01, 1523.33, 999.22)">C</text><text class="cls-10" transform="matrix(0.01, -1, 1, 0.01, 1525.22, 855.05)">OO</text><text class="cls-11" transform="matrix(0.01, -1, 1, 0.01, 1529.11, 558.12)">L</text></g></g><rect class="cls-16" x="1024.71" y="-371.39" width="120.32" height="154.5" transform="translate(1756.64 1581.93) rotate(-89.25)"/><rect class="cls-16" x="1046.65" y="-356.37" width="73.83" height="116.22" transform="translate(1759.48 1576.56) rotate(-89.25)"/><g id="NICKY_B-31" data-name="NICKY B" class="cls-15"><g class="cls-2"><text class="cls-5" transform="translate(1459.33 2013.57) rotate(-80.94)">NICK</text><text class="cls-4" transform="translate(1508.32 1706.48) rotate(-80.94)">Y</text><text class="cls-5" transform="translate(1521.8 1621.98) rotate(-80.94)"><tspan xml:space="preserve"> B</tspan></text></g></g><g id="NICKY_B-32" data-name="NICKY B" class="cls-15"><g class="cls-2"><text class="cls-5" transform="translate(1539.99 1507.96) rotate(-80.94)">NICK</text><text class="cls-4" transform="translate(1588.97 1200.87) rotate(-80.94)">Y</text><text class="cls-5" transform="translate(1602.46 1116.37) rotate(-80.94)"><tspan xml:space="preserve"> B</tspan></text></g></g><g id="DOT-31" data-name="DOT" class="cls-15"><g class="cls-2"><text class="cls-6" transform="translate(1638 1524.88) rotate(-80.94)">D</text><text class="cls-7" transform="translate(1652.52 1433.89) rotate(-80.94)">O</text><text class="cls-8" transform="translate(1668.26 1335.2) rotate(-80.94)">T</text></g></g><text class="cls-17" transform="translate(1754.9 1420.56) rotate(-80.94)">OO</text><text class="cls-18" transform="translate(1801.68 1127.32) rotate(-80.94)">L</text><polyline class="cls-16" points="1826.03 1127.19 1673.46 1102.85 1692.42 984.03 1844.99 1008.37"/><polyline class="cls-16" points="1810.1 1096.95 1695.33 1078.64 1706.96 1005.73 1821.73 1024.04"/><polyline class="cls-16" points="491.71 1824.47 646.21 1825.64 645.3 1945.95"/><g id="NICKY_B-33" data-name="NICKY B" class="cls-15"><g class="cls-2"><text class="cls-5" transform="translate(1461.76 2045.41) rotate(-151.53)">NICK</text><text class="cls-4" transform="translate(1188.41 1897.15) rotate(-151.53)">Y</text><text class="cls-5" transform="translate(1113.19 1856.35) rotate(-151.53)"><tspan xml:space="preserve"> B</tspan></text></g></g><text class="cls-19" transform="translate(1341.45 1867.01) rotate(-151.53)">T</text><text class="cls-17" transform="translate(1450.76 1813.67) rotate(-151.53)">OO</text><text class="cls-18" transform="translate(1189.73 1672.09) rotate(-151.53)">L</text><rect class="cls-16" x="638.87" y="840.7" width="154.5" height="120.32" transform="translate(-25.32 1888.3) rotate(-61.53)"/><rect class="cls-16" x="653.75" y="863.18" width="116.22" height="73.83" transform="translate(-26.88 1884.16) rotate(-61.53)"/><text class="cls-20" transform="translate(1472.51 1695.16) rotate(-151.53)"><tspan xml:space="preserve"> B</tspan></text><text class="cls-18" transform="translate(1549.04 1510.9) rotate(-151.53)">L</text><polyline class="cls-16" points="1483.35 1623.7 1377.59 1566.33 1451.24 1430.52 1557.01 1487.89"/><rect class="cls-16" x="1013.07" y="701.99" width="116.22" height="73.83" transform="translate(302.82 2115.66) rotate(-61.53)"/><g id="NICKY_B-34" data-name="NICKY B" class="cls-15"><g class="cls-2"><text class="cls-5" transform="translate(1372.77 1641.07) rotate(-151.53)">NICK</text><text class="cls-4" transform="translate(1099.42 1492.81) rotate(-151.53)">Y</text><text class="cls-5" transform="translate(1024.2 1452.01) rotate(-151.53)"><tspan xml:space="preserve"> B</tspan></text></g></g><g id="DOT-32" data-name="DOT" class="cls-15"><g class="cls-2"><text class="cls-6" transform="translate(1421.31 1554.25) rotate(-151.53)">D</text><text class="cls-7" transform="translate(1340.31 1510.32) rotate(-151.53)">O</text><text class="cls-8" transform="translate(1252.46 1462.67) rotate(-151.53)">T</text></g></g><g id="COOL-31" data-name="COOL" class="cls-15"><g class="cls-2"><text class="cls-9" transform="translate(1488.5 1478.07) rotate(-151.53)">C</text><text class="cls-10" transform="translate(1361.77 1409.33) rotate(-151.53)">OO</text><text class="cls-11" transform="translate(1100.74 1267.75) rotate(-151.53)">L</text></g></g><rect class="cls-16" x="549.88" y="436.36" width="154.5" height="120.32" transform="translate(283.55 1598.51) rotate(-61.53)"/><rect class="cls-16" x="564.76" y="458.84" width="116.22" height="73.83" transform="translate(281.99 1594.36) rotate(-61.53)"/><g id="NICKY_B-35" data-name="NICKY B" class="cls-15"><g class="cls-2"><text class="cls-5" transform="translate(1760.47 1500.96) rotate(-151.53)">NICK</text><text class="cls-4" transform="translate(1487.12 1352.7) rotate(-151.53)">Y</text><text class="cls-5" transform="translate(1411.9 1311.9) rotate(-151.53)"><tspan xml:space="preserve"> B</tspan></text></g></g><text class="cls-19" transform="translate(1640.16 1322.56) rotate(-151.53)">T</text><text class="cls-17" transform="translate(1749.46 1269.22) rotate(-151.53)">OO</text><text class="cls-18" transform="translate(1488.43 1127.64) rotate(-151.53)">L</text><rect class="cls-16" x="937.58" y="296.25" width="154.5" height="120.32" transform="translate(609.56 1865.99) rotate(-61.53)"/><rect class="cls-16" x="952.46" y="318.73" width="116.22" height="73.83" transform="translate(608.01 1861.85) rotate(-61.53)"/><g id="NICKY_B-36" data-name="NICKY B" class="cls-21"><g class="cls-2"><text class="cls-5" transform="matrix(0.77, 0.64, -0.64, 0.77, 95.34, 1251.06)">NICK</text><text class="cls-4" transform="matrix(0.77, 0.64, -0.64, 0.77, 335.53, 1448.58)">Y</text><text class="cls-5" transform="matrix(0.77, 0.64, -0.64, 0.77, 401.62, 1502.93)"><tspan xml:space="preserve"> B</tspan></text></g></g><g id="NICKY_B-37" data-name="NICKY B" class="cls-21"><g class="cls-2"><text class="cls-5" transform="matrix(0.77, 0.64, -0.64, 0.77, 490.8, 1576.27)">NICK</text><text class="cls-4" transform="matrix(0.77, 0.64, -0.64, 0.77, 730.98, 1773.79)">Y</text><text class="cls-5" transform="matrix(0.77, 0.64, -0.64, 0.77, 797.07, 1828.15)"><tspan xml:space="preserve"> B</tspan></text></g></g><g id="DOT-33" data-name="DOT" class="cls-21"><g class="cls-2"><text class="cls-6" transform="matrix(0.77, 0.64, -0.64, 0.77, 426.64, 1652.29)">D</text><text class="cls-7" transform="matrix(0.77, 0.64, -0.64, 0.77, 497.81, 1710.81)">O</text><text class="cls-8" transform="matrix(0.77, 0.64, -0.64, 0.77, 575, 1774.29)">T</text></g></g><text class="cls-22" transform="matrix(0.77, 0.64, -0.64, 0.77, 457.55, 1805.88)">OO</text><text class="cls-23" transform="matrix(0.77, 0.64, -0.64, 0.77, 686.9, 1994.49)">L</text><polyline class="cls-24" points="674.7 2015.58 772.84 1896.25 865.77 1972.67 767.63 2092"/><polyline class="cls-24" points="708.85 2017.12 782.67 1927.35 839.69 1974.25 765.87 2064.01"/><polyline class="cls-24" points="747.68 511.82 668.57 644.53 565.22 582.92"/><g id="NICKY_B-38" data-name="NICKY B" class="cls-21"><g class="cls-2"><text class="cls-5" transform="translate(66.64 1237.07) rotate(-31.16)">NICK</text><text class="cls-4" transform="translate(332.75 1076.18) rotate(-31.16)">Y</text><text class="cls-5" transform="translate(405.98 1031.9) rotate(-31.16)"><tspan xml:space="preserve"> B</tspan></text></g></g><text class="cls-25" transform="translate(281.38 1223.46) rotate(-31.16)">T</text><text class="cls-22" transform="translate(272.15 1344.73) rotate(-31.16)">OO</text><text class="cls-23" transform="translate(526.26 1191.09) rotate(-31.16)">L</text><rect class="cls-24" x="101.58" y="247.68" width="120.32" height="154.5" transform="translate(247.08 917.99) rotate(-31.16)"/><rect class="cls-24" x="127.64" y="263.53" width="73.83" height="116.22" transform="translate(249.19 918.97) rotate(-31.16)"/><text class="cls-26" transform="translate(363.39 1423.41) rotate(-31.16)"><tspan xml:space="preserve"> B</tspan></text><text class="cls-23" transform="translate(483.68 1582.6) rotate(-31.16)">L</text><polyline class="cls-24" points="419.57 1468.9 522.53 1406.64 602.47 1538.86 499.51 1601.11"/><rect class="cls-24" x="85.05" y="655.04" width="73.83" height="116.22" transform="translate(40.49 953.41) rotate(-31.16)"/><g id="NICKY_B-39" data-name="NICKY B" class="cls-21"><g class="cls-2"><text class="cls-5" transform="translate(460.49 1364.71) rotate(-31.16)">NICK</text><text class="cls-4" transform="translate(726.6 1203.82) rotate(-31.16)">Y</text><text class="cls-5" transform="translate(799.83 1159.54) rotate(-31.16)"><tspan xml:space="preserve"> B</tspan></text></g></g><g id="DOT-34" data-name="DOT" class="cls-21"><g class="cls-2"><text class="cls-6" transform="translate(510.86 1450.48) rotate(-31.16)">D</text><text class="cls-7" transform="translate(589.71 1402.81) rotate(-31.16)">O</text><text class="cls-8" transform="translate(675.23 1351.1) rotate(-31.16)">T</text></g></g><g id="COOL-32" data-name="COOL" class="cls-21"><g class="cls-2"><text class="cls-9" transform="translate(542.61 1546.97) rotate(-31.16)">C</text><text class="cls-10" transform="translate(665.99 1472.37) rotate(-31.16)">OO</text><text class="cls-11" transform="translate(920.11 1318.73) rotate(-31.16)">L</text></g></g><rect class="cls-24" x="495.43" y="375.32" width="120.32" height="154.5" transform="translate(237.85 1140.18) rotate(-31.16)"/><rect class="cls-24" x="521.49" y="391.17" width="73.83" height="116.22" transform="translate(239.96 1141.16) rotate(-31.16)"/><g id="NICKY_B-40" data-name="NICKY B" class="cls-21"><g class="cls-2"><text class="cls-5" transform="translate(385.36 1770.04) rotate(-31.16)">NICK</text><text class="cls-4" transform="translate(651.48 1609.15) rotate(-31.16)">Y</text><text class="cls-5" transform="translate(724.71 1564.88) rotate(-31.16)"><tspan xml:space="preserve"> B</tspan></text></g></g><text class="cls-25" transform="translate(600.11 1756.43) rotate(-31.16)">T</text><text class="cls-22" transform="translate(590.87 1877.71) rotate(-31.16)">OO</text><text class="cls-23" transform="translate(844.99 1724.07) rotate(-31.16)">L</text><rect class="cls-24" x="420.31" y="780.65" width="120.32" height="154.5" transform="translate(17.3 1159.78) rotate(-31.16)"/><rect class="cls-24" x="446.36" y="796.51" width="73.83" height="116.22" transform="translate(19.41 1160.76) rotate(-31.16)"/></svg>